<svg width="220" height="220" viewBox="0 0 220 220" fill="none" xmlns="http://www.w3.org/2000/svg">
<g clip-path="url(#clip0_108_90)">
<path d="M110 220C170.751 220 220 170.751 220 110C220 49.2487 170.751 0 110 0C49.2487 0 0 49.2487 0 110C0 170.751 49.2487 220 110 220Z" fill="#F8C24A"/>
<path d="M110 185.625C68.2962 185.625 34.375 151.704 34.375 110C34.375 68.2962 68.3169 34.375 110 34.375C151.683 34.375 185.625 68.3169 185.625 110C185.625 116.889 184.69 123.75 182.841 130.391C182.377 131.918 181.334 133.202 179.935 133.969C178.536 134.736 176.892 134.925 175.356 134.496C173.819 134.066 172.512 133.052 171.714 131.671C170.915 130.29 170.689 128.651 171.084 127.105C172.631 121.536 173.422 115.782 173.415 110C173.415 75.0337 144.966 46.585 110 46.585C75.0337 46.585 46.585 75.0337 46.585 110C46.585 144.966 75.0337 173.415 110 173.415C116.545 173.415 123.056 172.411 129.291 170.424C130.061 170.159 130.876 170.05 131.688 170.104C132.501 170.158 133.294 170.374 134.022 170.74C134.749 171.105 135.397 171.612 135.925 172.232C136.454 172.851 136.853 173.57 137.1 174.346C137.347 175.122 137.436 175.939 137.362 176.75C137.288 177.561 137.053 178.349 136.67 179.067C136.287 179.786 135.764 180.42 135.132 180.934C134.5 181.447 133.772 181.829 132.99 182.057C125.557 184.428 117.802 185.632 110 185.625ZM133.203 109.821C135.816 112.007 137.576 115.17 138.483 119.302C139.074 121.681 139.033 124.176 138.373 126.534C137.713 128.721 136.55 130.722 134.977 132.378C133.255 134.171 131.236 135.652 129.009 136.757C126.658 137.974 126.101 138.366 123.296 138.985L121.55 139.404C121.032 139.53 120.584 139.854 120.303 140.307C120.021 140.759 119.928 141.304 120.044 141.824L121.076 146.444C121.133 146.706 121.139 146.976 121.092 147.24C121.045 147.503 120.947 147.755 120.802 147.98C120.658 148.206 120.471 148.4 120.251 148.553C120.031 148.706 119.783 148.814 119.522 148.871L114.868 149.903C114.607 149.96 114.337 149.966 114.074 149.92C113.81 149.873 113.559 149.775 113.334 149.632C113.108 149.488 112.913 149.301 112.76 149.082C112.607 148.864 112.498 148.617 112.441 148.356L111.423 143.77C111.365 143.509 111.257 143.262 111.104 143.043C110.95 142.824 110.755 142.638 110.53 142.494C110.305 142.35 110.053 142.252 109.79 142.206C109.527 142.16 109.257 142.165 108.996 142.223L96.3944 145.014C95.1089 145.297 93.764 145.057 92.6553 144.348C91.5465 143.639 90.7648 142.518 90.4819 141.233L79.1381 89.9525C78.8558 88.667 79.0955 87.3221 79.8046 86.2134C80.5137 85.1046 81.6341 84.3229 82.9194 84.04L95.5213 81.2487C95.7822 81.191 96.0292 81.0824 96.2481 80.9291C96.4671 80.7759 96.6537 80.581 96.7973 80.3557C96.941 80.1303 97.0388 79.8789 97.0853 79.6157C97.1317 79.3525 97.1259 79.0828 97.0681 78.8219L96.0369 74.2019C95.9803 73.9405 95.9758 73.6705 96.0236 73.4074C96.0714 73.1443 96.1706 72.8931 96.3156 72.6684C96.4605 72.4436 96.6483 72.2497 96.8683 72.0975C97.0883 71.9454 97.3361 71.8382 97.5975 71.7819L102.252 70.7506C102.513 70.6928 102.783 70.687 103.046 70.7335C103.309 70.7799 103.56 70.8778 103.786 71.0214C104.011 71.1651 104.206 71.3517 104.359 71.5706C104.512 71.7896 104.621 72.0366 104.679 72.2975L105.696 76.89C105.814 77.4157 106.136 77.873 106.591 78.1617C107.046 78.4504 107.597 78.5469 108.123 78.43L111.973 77.5913C113.967 77.1238 116.05 77.1581 118.023 77.6944C119.907 78.21 121.667 79.09 123.2 80.2863C126.315 82.7736 128.484 86.2529 129.346 90.145C129.992 93.0325 129.862 96.0438 128.975 98.8763C128.056 101.814 126.205 104.372 123.702 106.164C127.181 106.329 130.508 107.607 133.203 109.821ZM95.8719 98.8419L96.5456 101.771C96.8285 103.056 97.6103 104.176 98.719 104.885C99.8277 105.594 101.173 105.834 102.458 105.552L111.444 103.558C112.964 103.235 114.311 102.36 115.225 101.104C116.194 99.8112 116.442 98.0788 115.961 95.8994C115.514 93.8919 114.641 92.4619 113.348 91.6094C112.741 91.1919 112.052 90.9064 111.327 90.7714C110.603 90.6364 109.858 90.6549 109.141 90.8256L99.6531 92.9225C99.016 93.0625 98.4127 93.3268 97.8777 93.7001C97.3428 94.0735 96.8867 94.5486 96.5355 95.0984C96.1843 95.6482 95.945 96.2617 95.8311 96.9041C95.7172 97.5464 95.7311 98.2049 95.8719 98.8419ZM122.746 124.74H122.76C123.228 123.983 123.537 123.138 123.667 122.257C123.797 121.376 123.746 120.478 123.516 119.618C123.177 117.86 122.218 116.282 120.814 115.17C120.189 114.651 119.452 114.284 118.661 114.098C117.871 113.912 117.047 113.912 116.256 114.098L104.871 116.621C103.586 116.904 102.466 117.685 101.756 118.794C101.047 119.903 100.808 121.248 101.09 122.533L101.887 126.156C102.028 126.793 102.292 127.397 102.665 127.932C103.038 128.467 103.514 128.923 104.063 129.274C104.613 129.625 105.227 129.864 105.869 129.978C106.511 130.092 107.17 130.078 107.807 129.938L118.594 127.552C119.442 127.393 120.248 127.061 120.962 126.577C121.676 126.093 122.284 125.468 122.746 124.74ZM145.42 161.748L155.959 149.153C156.193 148.875 156.341 148.536 156.389 148.176C156.436 147.816 156.379 147.451 156.225 147.122C156.071 146.793 155.827 146.515 155.52 146.321C155.214 146.127 154.858 146.024 154.495 146.025H147.4C147.149 146.026 146.901 145.977 146.669 145.882C146.437 145.787 146.227 145.647 146.049 145.47C145.871 145.293 145.73 145.082 145.634 144.851C145.538 144.619 145.489 144.371 145.489 144.121V142.636C145.489 141.584 146.341 140.731 147.4 140.731H163.611C164.116 140.731 164.601 140.932 164.958 141.289C165.315 141.646 165.516 142.131 165.516 142.636V144.588C165.515 145.018 165.37 145.434 165.103 145.771L155.018 158.434C154.793 158.715 154.653 159.053 154.612 159.41C154.572 159.767 154.633 160.127 154.789 160.451C154.945 160.774 155.19 161.047 155.494 161.238C155.798 161.428 156.15 161.529 156.509 161.528H163.735C164.787 161.528 165.646 162.381 165.646 163.432V164.911C165.646 165.161 165.597 165.409 165.501 165.641C165.404 165.872 165.264 166.083 165.086 166.26C164.908 166.437 164.698 166.577 164.466 166.672C164.234 166.767 163.986 166.816 163.735 166.815H146.878C146.372 166.815 145.888 166.614 145.531 166.257C145.174 165.9 144.973 165.416 144.973 164.911V162.986C144.972 162.533 145.13 162.095 145.42 161.748Z" fill="white"/>
</g>
<defs>
<clipPath id="clip0_108_90">
<rect width="220" height="220" fill="white"/>
</clipPath>
</defs>
</svg>
