<svg width="220" height="220" viewBox="0 0 220 220" fill="none" xmlns="http://www.w3.org/2000/svg">
<g clip-path="url(#clip0_304_40)">
<path d="M110 220C170.751 220 220 170.751 220 110C220 49.2487 170.751 0 110 0C49.2487 0 0 49.2487 0 110C0 170.751 49.2487 220 110 220Z" fill="#172852"/>
<path d="M88.6059 49.1593C101.487 44.3413 115.985 44.3303 129.108 48.2903C146.191 53.5923 160.612 66.4844 168.147 82.6654C170.226 87.2744 172.217 92.0814 172.415 97.2074C162.812 91.6414 152.285 88.0334 141.736 84.7444C124.862 78.6614 107.196 74.4374 91.2239 66.0774C87.5059 63.8554 82.7649 61.5783 81.7529 56.9473C81.3459 52.9433 85.5809 50.7103 88.6059 49.1593Z" fill="#FFD83D"/>
<path d="M49.7204 88.0996C53.4494 77.9796 59.5654 68.5856 67.8704 61.6226C69.9824 78.9916 77.3744 95.7776 89.5844 108.406C104.225 123.619 125.081 132.958 146.3 132.606C154.726 132.87 162.965 130.923 171.182 129.35C163.097 158.566 131.076 177.959 101.409 173.295C83.5014 171.007 66.9684 160.403 56.9914 145.432C45.7384 128.888 42.9004 106.921 49.7204 88.0996Z" fill="#FFD83D"/>
<path d="M141.735 84.7441C152.284 88.0331 162.811 91.6411 172.414 97.2071L173.063 97.5481C173.954 104.247 174.603 111.078 173.415 117.788C168.586 115.742 164.67 112.145 160.578 108.966C152.702 102.41 144.661 94.9081 141.735 84.7441Z" fill="#FF6F03"/>
</g>
<defs>
<clipPath id="clip0_304_40">
<rect width="220" height="220" fill="white"/>
</clipPath>
</defs>
</svg>